<mxfile host="app.diagrams.net" modified="2020-10-06T09:30:40.164Z" agent="5.0 (Macintosh; Intel Mac OS X 10_15_4) AppleWebKit/605.1.15 (KHTML, like Gecko) Version/13.1 Safari/605.1.15" etag="8bRzTnnCuTQTuaC2XZjI" version="13.7.7" type="github">
  <diagram id="iK3rkuoWIKRfqOqWd9sa" name="Page-1">
    <mxGraphModel dx="1743" dy="2565" grid="1" gridSize="12" guides="1" tooltips="1" connect="1" arrows="1" fold="1" page="1" pageScale="1" pageWidth="1169" pageHeight="1654" math="0" shadow="0">
      <root>
        <mxCell id="0" />
        <mxCell id="1" parent="0" />
        <mxCell id="lwRZKzGV4_iUapjq0T7R-1" value="" style="rounded=0;whiteSpace=wrap;html=1;" vertex="1" parent="1">
          <mxGeometry x="60" y="328.5" width="156" height="87" as="geometry" />
        </mxCell>
        <mxCell id="lwRZKzGV4_iUapjq0T7R-4" value="&lt;font style=&quot;font-size: 32px&quot;&gt;&lt;b&gt;ARKit-CubiCasa&lt;/b&gt;&lt;/font&gt;" style="text;html=1;align=center;verticalAlign=middle;resizable=0;points=[];autosize=1;" vertex="1" parent="1">
          <mxGeometry x="48" y="132" width="264" height="24" as="geometry" />
        </mxCell>
        <mxCell id="lwRZKzGV4_iUapjq0T7R-5" value="&lt;font style=&quot;font-size: 32px&quot;&gt;&lt;b&gt;ARKit CubiCasa&lt;br&gt;App Architecture&lt;/b&gt;&lt;/font&gt;" style="text;html=1;align=center;verticalAlign=middle;resizable=0;points=[];autosize=1;" vertex="1" parent="1">
          <mxGeometry x="1044" y="36" width="276" height="48" as="geometry" />
        </mxCell>
        <mxCell id="lwRZKzGV4_iUapjq0T7R-6" value="" style="image;html=1;image=img/lib/clip_art/general/Empty_Folder_128x128.png" vertex="1" parent="1">
          <mxGeometry x="60" y="168" width="80" height="80" as="geometry" />
        </mxCell>
        <mxCell id="lwRZKzGV4_iUapjq0T7R-58" style="edgeStyle=orthogonalEdgeStyle;rounded=0;orthogonalLoop=1;jettySize=auto;html=1;fontSize=21;" edge="1" parent="1" source="lwRZKzGV4_iUapjq0T7R-8" target="lwRZKzGV4_iUapjq0T7R-12">
          <mxGeometry relative="1" as="geometry" />
        </mxCell>
        <mxCell id="lwRZKzGV4_iUapjq0T7R-8" value="&lt;ul style=&quot;line-height: 127% ; font-size: 20px&quot;&gt;&lt;li&gt;AppDelegate&lt;br&gt;&lt;/li&gt;&lt;li&gt;Coordinator&lt;/li&gt;&lt;/ul&gt;" style="text;html=1;align=left;verticalAlign=middle;resizable=0;points=[];autosize=1;" vertex="1" parent="1">
          <mxGeometry x="48" y="324" width="180" height="96" as="geometry" />
        </mxCell>
        <mxCell id="lwRZKzGV4_iUapjq0T7R-9" value="&lt;font&gt;&lt;b&gt;&lt;font style=&quot;font-size: 25px&quot;&gt;App&lt;/font&gt;&lt;br&gt;&lt;/b&gt;&lt;/font&gt;" style="text;html=1;align=center;verticalAlign=middle;resizable=0;points=[];autosize=1;" vertex="1" parent="1">
          <mxGeometry x="72" y="288" width="72" height="24" as="geometry" />
        </mxCell>
        <mxCell id="lwRZKzGV4_iUapjq0T7R-12" value="&lt;font&gt;&lt;b&gt;&lt;font style=&quot;font-size: 25px&quot;&gt;Screen&lt;/font&gt;&lt;br&gt;&lt;/b&gt;&lt;/font&gt;" style="text;html=1;align=center;verticalAlign=middle;resizable=0;points=[];autosize=1;" vertex="1" parent="1">
          <mxGeometry x="252" y="432" width="96" height="24" as="geometry" />
        </mxCell>
        <mxCell id="lwRZKzGV4_iUapjq0T7R-59" style="edgeStyle=orthogonalEdgeStyle;rounded=0;orthogonalLoop=1;jettySize=auto;html=1;entryX=0.5;entryY=0;entryDx=0;entryDy=0;entryPerimeter=0;fontSize=21;" edge="1" parent="1" source="lwRZKzGV4_iUapjq0T7R-13" target="lwRZKzGV4_iUapjq0T7R-14">
          <mxGeometry relative="1" as="geometry" />
        </mxCell>
        <mxCell id="lwRZKzGV4_iUapjq0T7R-13" value="" style="image;html=1;image=img/lib/clip_art/general/Empty_Folder_128x128.png" vertex="1" parent="1">
          <mxGeometry x="274" y="468" width="52" height="60" as="geometry" />
        </mxCell>
        <mxCell id="lwRZKzGV4_iUapjq0T7R-14" value="&lt;font&gt;&lt;b&gt;&lt;font style=&quot;font-size: 25px&quot;&gt;AR&lt;/font&gt;&lt;br&gt;&lt;/b&gt;&lt;/font&gt;" style="text;html=1;align=center;verticalAlign=middle;resizable=0;points=[];autosize=1;" vertex="1" parent="1">
          <mxGeometry x="366" y="528" width="60" height="24" as="geometry" />
        </mxCell>
        <mxCell id="lwRZKzGV4_iUapjq0T7R-15" value="" style="image;html=1;image=img/lib/clip_art/general/Empty_Folder_128x128.png" vertex="1" parent="1">
          <mxGeometry x="370" y="564" width="52" height="60" as="geometry" />
        </mxCell>
        <mxCell id="lwRZKzGV4_iUapjq0T7R-16" value="" style="rounded=0;whiteSpace=wrap;html=1;" vertex="1" parent="1">
          <mxGeometry x="422" y="612" width="291" height="200" as="geometry" />
        </mxCell>
        <mxCell id="lwRZKzGV4_iUapjq0T7R-17" value="&lt;div&gt;&lt;br&gt;&lt;/div&gt;&lt;ul style=&quot;line-height: 127% ; font-size: 20px&quot;&gt;&lt;li&gt;ARFeature&lt;/li&gt;&lt;li&gt;ARImplementation&lt;/li&gt;&lt;li&gt;ARController&lt;/li&gt;&lt;li&gt;AR_UI&lt;/li&gt;&lt;li&gt;StateManager&lt;/li&gt;&lt;/ul&gt;" style="text;html=1;align=left;verticalAlign=middle;resizable=0;points=[];autosize=1;" vertex="1" parent="1">
          <mxGeometry x="453.5" y="622" width="228" height="180" as="geometry" />
        </mxCell>
        <mxCell id="lwRZKzGV4_iUapjq0T7R-41" value="" style="edgeStyle=orthogonalEdgeStyle;rounded=0;orthogonalLoop=1;jettySize=auto;html=1;fontSize=36;" edge="1" parent="1" source="lwRZKzGV4_iUapjq0T7R-37" target="lwRZKzGV4_iUapjq0T7R-40">
          <mxGeometry relative="1" as="geometry" />
        </mxCell>
        <mxCell id="lwRZKzGV4_iUapjq0T7R-43" value="" style="edgeStyle=orthogonalEdgeStyle;rounded=0;orthogonalLoop=1;jettySize=auto;html=1;fontSize=36;" edge="1" parent="1" source="lwRZKzGV4_iUapjq0T7R-37" target="lwRZKzGV4_iUapjq0T7R-42">
          <mxGeometry relative="1" as="geometry" />
        </mxCell>
        <mxCell id="lwRZKzGV4_iUapjq0T7R-45" value="" style="edgeStyle=orthogonalEdgeStyle;rounded=0;orthogonalLoop=1;jettySize=auto;html=1;fontSize=21;" edge="1" parent="1" source="lwRZKzGV4_iUapjq0T7R-37" target="lwRZKzGV4_iUapjq0T7R-44">
          <mxGeometry relative="1" as="geometry" />
        </mxCell>
        <mxCell id="lwRZKzGV4_iUapjq0T7R-49" value="" style="edgeStyle=orthogonalEdgeStyle;rounded=0;orthogonalLoop=1;jettySize=auto;html=1;fontSize=21;" edge="1" parent="1" source="lwRZKzGV4_iUapjq0T7R-37" target="lwRZKzGV4_iUapjq0T7R-48">
          <mxGeometry relative="1" as="geometry" />
        </mxCell>
        <mxCell id="lwRZKzGV4_iUapjq0T7R-56" style="edgeStyle=orthogonalEdgeStyle;rounded=0;orthogonalLoop=1;jettySize=auto;html=1;exitX=1;exitY=1;exitDx=0;exitDy=0;entryX=0;entryY=0.5;entryDx=0;entryDy=0;fontSize=21;" edge="1" parent="1" source="lwRZKzGV4_iUapjq0T7R-37" target="lwRZKzGV4_iUapjq0T7R-51">
          <mxGeometry relative="1" as="geometry" />
        </mxCell>
        <mxCell id="lwRZKzGV4_iUapjq0T7R-65" style="edgeStyle=orthogonalEdgeStyle;rounded=0;orthogonalLoop=1;jettySize=auto;html=1;exitX=0;exitY=0;exitDx=0;exitDy=0;entryX=0.5;entryY=1;entryDx=0;entryDy=0;fontSize=21;" edge="1" parent="1" source="lwRZKzGV4_iUapjq0T7R-37" target="lwRZKzGV4_iUapjq0T7R-62">
          <mxGeometry relative="1" as="geometry" />
        </mxCell>
        <mxCell id="lwRZKzGV4_iUapjq0T7R-37" value="&lt;font style=&quot;font-size: 26px&quot;&gt;ARController&lt;br&gt;&lt;/font&gt;" style="rounded=1;arcSize=10;whiteSpace=wrap;html=1;align=center;strokeWidth=2;fontSize=36;" vertex="1" parent="1">
          <mxGeometry x="1056" y="770" width="200" height="120" as="geometry" />
        </mxCell>
        <mxCell id="lwRZKzGV4_iUapjq0T7R-40" value="&lt;font style=&quot;font-size: 20px&quot;&gt;ARFeature&lt;/font&gt;" style="whiteSpace=wrap;html=1;rounded=1;fontSize=36;strokeWidth=2;arcSize=10;" vertex="1" parent="1">
          <mxGeometry x="1096" y="600" width="120" height="60" as="geometry" />
        </mxCell>
        <mxCell id="lwRZKzGV4_iUapjq0T7R-47" style="edgeStyle=orthogonalEdgeStyle;rounded=0;orthogonalLoop=1;jettySize=auto;html=1;exitX=0.5;exitY=0;exitDx=0;exitDy=0;entryX=1;entryY=0.25;entryDx=0;entryDy=0;fontSize=21;" edge="1" parent="1" source="lwRZKzGV4_iUapjq0T7R-42" target="lwRZKzGV4_iUapjq0T7R-40">
          <mxGeometry relative="1" as="geometry" />
        </mxCell>
        <mxCell id="lwRZKzGV4_iUapjq0T7R-42" value="&lt;span style=&quot;color: rgb(0, 0, 0); font-family: helvetica; font-size: 21px; font-style: normal; font-weight: normal; letter-spacing: normal; text-align: center; text-indent: 0px; text-transform: none; word-spacing: 0px; background-color: rgb(248, 249, 250); text-decoration: none; display: inline; float: none;&quot;&gt;ARImplementation&lt;/span&gt;" style="whiteSpace=wrap;html=1;rounded=1;fontSize=21;strokeWidth=2;arcSize=10;" vertex="1" parent="1">
          <mxGeometry x="1376" y="800" width="200" height="62" as="geometry" />
        </mxCell>
        <mxCell id="lwRZKzGV4_iUapjq0T7R-44" value="&lt;font style=&quot;font-size: 20px&quot;&gt;AR_UI(View)&lt;/font&gt;" style="whiteSpace=wrap;html=1;rounded=1;fontSize=36;strokeWidth=2;arcSize=10;" vertex="1" parent="1">
          <mxGeometry x="984" y="1000" width="200" height="60" as="geometry" />
        </mxCell>
        <mxCell id="lwRZKzGV4_iUapjq0T7R-48" value="&lt;font style=&quot;font-size: 21px&quot;&gt;StateManager&lt;/font&gt;" style="whiteSpace=wrap;html=1;rounded=1;fontSize=36;strokeWidth=2;arcSize=10;" vertex="1" parent="1">
          <mxGeometry x="816" y="800" width="180" height="60" as="geometry" />
        </mxCell>
        <mxCell id="lwRZKzGV4_iUapjq0T7R-53" value="" style="edgeStyle=orthogonalEdgeStyle;rounded=0;orthogonalLoop=1;jettySize=auto;html=1;fontSize=21;" edge="1" parent="1" source="lwRZKzGV4_iUapjq0T7R-51" target="lwRZKzGV4_iUapjq0T7R-52">
          <mxGeometry relative="1" as="geometry" />
        </mxCell>
        <mxCell id="lwRZKzGV4_iUapjq0T7R-55" value="" style="edgeStyle=orthogonalEdgeStyle;rounded=0;orthogonalLoop=1;jettySize=auto;html=1;fontSize=21;" edge="1" parent="1" source="lwRZKzGV4_iUapjq0T7R-51" target="lwRZKzGV4_iUapjq0T7R-54">
          <mxGeometry relative="1" as="geometry" />
        </mxCell>
        <mxCell id="lwRZKzGV4_iUapjq0T7R-51" value="Dependecies" style="ellipse;whiteSpace=wrap;html=1;strokeWidth=2;fontSize=21;" vertex="1" parent="1">
          <mxGeometry x="1608" y="912.5" width="192" height="120" as="geometry" />
        </mxCell>
        <mxCell id="lwRZKzGV4_iUapjq0T7R-52" value="Network" style="ellipse;whiteSpace=wrap;html=1;fontSize=21;strokeWidth=2;" vertex="1" parent="1">
          <mxGeometry x="1644" y="1132.5" width="120" height="80" as="geometry" />
        </mxCell>
        <mxCell id="lwRZKzGV4_iUapjq0T7R-54" value="Coordinator" style="ellipse;whiteSpace=wrap;html=1;strokeWidth=2;fontSize=21;" vertex="1" parent="1">
          <mxGeometry x="1464" y="1132.5" width="144" height="84" as="geometry" />
        </mxCell>
        <mxCell id="lwRZKzGV4_iUapjq0T7R-57" value="Responsibilities&lt;br&gt;&lt;ul&gt;&lt;li&gt;Download object from network&lt;/li&gt;&lt;li&gt;Percept environment&lt;/li&gt;&lt;li&gt;Place downloaded object&lt;/li&gt;&lt;li&gt;Take snapshots (location and image)&lt;/li&gt;&lt;/ul&gt;" style="shape=note;whiteSpace=wrap;html=1;backgroundOutline=1;darkOpacity=0.05;strokeWidth=2;fontSize=21;align=left;" vertex="1" parent="1">
          <mxGeometry x="420" y="840" width="312" height="336" as="geometry" />
        </mxCell>
        <mxCell id="lwRZKzGV4_iUapjq0T7R-62" value="&lt;span style=&quot;font-size: 21px&quot;&gt;ARSessionDelegate&lt;br&gt;&lt;/span&gt;" style="whiteSpace=wrap;html=1;rounded=1;fontSize=36;strokeWidth=2;arcSize=10;" vertex="1" parent="1">
          <mxGeometry x="816" y="600" width="200" height="60" as="geometry" />
        </mxCell>
      </root>
    </mxGraphModel>
  </diagram>
</mxfile>
